HIERARCHY
ROOT Hips
{
 OFFSET 0.000000 0.000000 0.000000
 CHANNELS 6 Xposition Yposition Zposition Yrotation Xrotation Zrotation
 JOINT Chest
 {
  OFFSET 0.000000 11.328625 -1.258737
  CHANNELS 3 Yrotation Xrotation Zrotation
  JOINT Chest2
  {
   OFFSET 0.000000 12.106861 0.000000
   CHANNELS 3 Yrotation Xrotation Zrotation
   JOINT Chest3
   {
    OFFSET 0.000000 11.050691 0.019618
    CHANNELS 3 Yrotation Xrotation Zrotation
    JOINT Chest4
    {
     OFFSET 0.000000 11.038359 0.019638
     CHANNELS 3 Yrotation Xrotation Zrotation
     JOINT Neck
     {
      OFFSET 0.000000 15.533067 0.000000
      CHANNELS 3 Yrotation Xrotation Zrotation
      JOINT Head
      {
       OFFSET 0.000000 9.869351 -0.010017
       CHANNELS 3 Yrotation Xrotation Zrotation
       End Site
       {
        OFFSET 0.000000 18.041002 0.002980
       }
      }
     }
     JOINT RightCollar
     {
      OFFSET -3.375967 8.695376 0.000000
      CHANNELS 3 Yrotation Xrotation Zrotation
      JOINT RightShoulder
      {
       OFFSET -15.363214 0.000000 0.000000
       CHANNELS 3 Yrotation Xrotation Zrotation
       JOINT RightElbow
       {
        OFFSET -32.169508 0.000000 0.000000
        CHANNELS 3 Yrotation Xrotation Zrotation
        JOINT RightWrist
        {
         OFFSET -24.390617 0.000000 0.000770
         CHANNELS 3 Yrotation Xrotation Zrotation
         End Site
         {
          OFFSET -19.731065 0.000000 0.000000
         }
        }
       }
      }
     }
     JOINT LeftCollar
     {
      OFFSET 3.375967 8.695376 0.000000
      CHANNELS 3 Yrotation Xrotation Zrotation
      JOINT LeftShoulder
      {
       OFFSET 15.363214 0.000000 0.000000
       CHANNELS 3 Yrotation Xrotation Zrotation
       JOINT LeftElbow
       {
        OFFSET 32.169508 0.000000 0.000000
        CHANNELS 3 Yrotation Xrotation Zrotation
        JOINT LeftWrist
        {
         OFFSET 24.390617 0.000000 0.000770
         CHANNELS 3 Yrotation Xrotation Zrotation
         End Site
         {
          OFFSET 19.731065 0.000000 0.000000
         }
        }
       }
      }
     }
    }
   }
  }
 }
 JOINT RightHip
 {
  OFFSET -9.235312 -0.046822 0.005202
  CHANNELS 3 Yrotation Xrotation Zrotation
  JOINT RightKnee
  {
   OFFSET 0.000000 -46.217337 0.004637
   CHANNELS 3 Yrotation Xrotation Zrotation
   JOINT RightAnkle
   {
    OFFSET 0.000000 -44.341153 0.005647
    CHANNELS 3 Yrotation Xrotation Zrotation
    JOINT RightToe
    {
     OFFSET 0.000000 -7.195716 16.233890
     CHANNELS 3 Yrotation Xrotation Zrotation
     End Site
     {
      OFFSET 0.000000 -1.632678 6.983770
     }
    }
   }
  }
 }
 JOINT LeftHip
 {
  OFFSET 9.235312 -0.049215 0.005468
  CHANNELS 3 Yrotation Xrotation Zrotation
  JOINT LeftKnee
  {
   OFFSET 0.000000 -46.217337 0.004637
   CHANNELS 3 Yrotation Xrotation Zrotation
   JOINT LeftAnkle
   {
    OFFSET 0.000000 -44.341153 0.005647
    CHANNELS 3 Yrotation Xrotation Zrotation
    JOINT LeftToe
    {
     OFFSET 0.000000 -7.195716 16.233890
     CHANNELS 3 Yrotation Xrotation Zrotation
     End Site
     {
      OFFSET 0.000000 -1.632678 6.983770
     }
    }
   }
  }
 }
}
MOTION
Frames: 9
Frame Time: 0.016667
53.249747 97.430070 39.637300 -87.543433 14.275427 -5.600339 -0.133260 9.224195 0.339871 -0.081373 -1.726774 0.152880 -0.081564 4.093654 0.144598 -0.050916 8.906897 0.110116 1.928800 9.756296 -0.145020 3.821077 -17.878648 -1.181201 -0.801768 2.716774 -2.171529 -0.789482 -30.606658 65.636197 51.742382 -34.151978 28.795170 -0.849914 -2.392827 2.058043 -1.496896 6.345642 -2.187209 9.446981 -30.505447 -69.597679 -58.941524 -37.837580 -29.352675 9.102986 2.870176 6.455627 2.813888 -32.577391 -3.558642 -8.784588 34.159613 0.468138 -12.283847 -1.052488 6.112556 -0.170990 -11.123611 1.981416 9.026783 -29.155259 -0.461062 -5.145983 29.420686 -1.191888 5.068936 -15.494427 0.269757 0.000000 0.000000 0.000000
52.427468 97.568003 39.846904 -87.347674 13.253057 -5.501715 -0.200833 8.824358 0.369874 -0.113074 -1.904541 0.167415 -0.113293 3.915880 0.155909 -0.073847 8.773553 0.118841 1.874198 10.305262 -0.076900 3.665730 -16.863357 -1.003433 -1.065026 2.895875 -2.020574 -2.137797 -30.018778 65.975871 52.394984 -34.236354 29.770502 -0.752047 -2.347524 2.196014 -1.188187 6.501587 -2.097051 10.478559 -29.684209 -70.237476 -59.664926 -38.005859 -30.379551 9.125879 2.968600 6.764233 2.297516 -32.323690 -3.127399 -8.738844 36.094978 -0.033759 -12.933680 -0.385231 6.123339 -0.200748 -11.691450 2.503548 9.170793 -27.184192 -0.574086 -5.390808 28.650361 -0.976426 5.123215 -15.701649 0.338600 0.000000 0.000000 0.000000
51.632775 97.695296 40.044911 -87.148989 12.351550 -5.382055 -0.271589 8.430799 0.387373 -0.145370 -2.079520 0.176372 -0.145603 3.740893 0.161583 -0.097615 8.642302 0.123279 1.833237 10.768430 -0.029050 3.551152 -16.006084 -0.876424 -1.408714 3.024921 -1.879194 -3.430280 -29.505153 66.330536 52.926940 -34.424495 30.944953 -0.662847 -2.327585 2.188271 -0.940310 6.694859 -1.994211 11.292756 -28.909185 -70.819967 -60.727961 -38.226036 -31.039906 9.248415 2.972087 7.406220 0.234170 -32.285513 -2.002454 -7.799699 37.979224 -0.581156 -13.141778 -0.013314 5.733471 -0.180822 -11.035211 3.270576 9.040858 -25.340226 -0.576999 -5.513883 27.853104 -0.869707 5.197541 -15.900313 0.489415 -0.000000 0.000000 0.000000
50.864439 97.812831 40.228748 -86.948356 11.560082 -5.252287 -0.340783 8.042214 0.398550 -0.176558 -2.252287 0.182392 -0.176788 3.568118 0.164435 -0.120743 8.512712 0.125556 1.798866 11.168228 0.011130 3.455740 -15.265962 -0.770577 -1.782619 3.123428 -1.740800 -4.684857 -29.056933 66.683563 53.367224 -34.723142 32.232300 -0.558800 -2.332115 2.046555 -0.736871 6.890906 -1.885639 11.967590 -28.191917 -71.369560 -61.968680 -38.484221 -31.509710 9.419375 2.919053 8.305825 -2.699447 -32.383362 -0.503926 -6.391321 39.771038 -1.148103 -13.063576 0.127480 5.140474 -0.081154 -9.563158 4.044257 8.766408 -23.616100 -0.530632 -5.544805 27.035396 -0.817797 5.259606 -16.083835 0.676028 -0.000000 0.000000 0.000000
50.118188 97.922237 40.396777 -86.727673 10.878615 -5.117791 -0.406292 7.651961 0.407538 -0.205936 -2.425797 0.187263 -0.206132 3.394598 0.166319 -0.142556 8.382563 0.127068 1.763729 11.528502 0.056907 3.358845 -14.599280 -0.656098 -2.096742 3.220203 -1.597056 -5.904436 -28.612573 67.008948 53.816216 -35.139508 33.466058 -0.437304 -2.366539 1.775418 -0.573383 7.049576 -1.795490 12.636026 -27.561546 -71.881370 -63.081087 -38.784361 -32.082023 9.577970 2.852865 9.276118 -5.050642 -32.414583 0.596516 -5.283905 40.941761 -1.463270 -12.660705 -0.101439 4.830042 0.056586 -7.692050 4.134931 8.519954 -22.017622 -0.486340 -5.461440 26.210822 -0.751624 5.198453 -16.237191 0.801117 -0.000000 0.000000 0.000000
49.399734 98.023445 40.550715 -86.468890 10.319236 -4.978990 -0.462387 7.258118 0.419261 -0.231266 -2.600898 0.193090 -0.231401 3.219485 0.169576 -0.161214 8.251219 0.129580 1.725183 11.844860 0.114970 3.252482 -14.014393 -0.519038 -2.307909 3.328733 -1.431111 -7.132991 -28.134552 67.295417 54.378392 -35.675266 34.549264 -0.274138 -2.438935 1.422414 -0.456591 7.143456 -1.738736 13.358624 -27.042331 -72.366141 -63.907358 -39.130775 -32.919467 9.686440 2.775505 10.296938 -6.193459 -32.375524 0.924010 -4.841038 41.335091 -1.328522 -11.737560 -0.922704 5.046576 0.135988 -5.135756 2.986014 8.311693 -20.570289 -0.429341 -5.175076 25.394590 -0.657972 4.926463 -16.354843 0.807046 0.000000 0.000000 0.000000
48.703365 98.116523 40.688844 -86.189245 9.869594 -4.834729 -0.514706 6.862605 0.428439 -0.254760 -2.776736 0.197644 -0.254829 3.043637 0.171748 -0.178580 8.119326 0.131247 1.685921 12.121557 0.179374 3.143849 -13.503167 -0.371618 -2.459121 3.435410 -1.251768 -8.330838 -27.663484 67.565744 54.952057 -36.316454 35.574365 -0.087650 -2.527756 0.937356 -0.377774 7.199924 -1.704732 14.078213 -26.611558 -72.818989 -64.594641 -39.523420 -33.860610 9.777310 2.690980 11.390878 -6.747938 -32.328328 0.877920 -4.675091 41.111104 -0.918896 -10.480183 -2.103393 5.538108 0.095566 -2.150572 1.245186 8.126528 -19.248989 -0.365789 -4.779188 24.570734 -0.566531 4.531575 -16.442275 0.751160 0.000000 -0.000000 0.000000
48.007674 98.203306 40.804371 -85.923539 9.493112 -4.688080 -0.578118 6.464581 0.424003 -0.282379 -2.953690 0.196216 -0.282376 2.866671 0.167514 -0.199504 7.986597 0.128068 1.646249 12.395509 0.243594 3.035623 -12.996844 -0.225414 -2.589124 3.528778 -1.087699 -9.376068 -27.253938 67.847960 55.335371 -37.039608 36.655268 0.063992 -2.589026 0.179657 -0.308904 7.261142 -1.677413 14.747243 -26.228335 -73.203822 -65.293848 -39.965392 -34.710439 9.896425 2.629345 12.431930 -7.116592 -32.235071 0.845408 -4.414225 40.217962 -0.507351 -9.413177 -3.093725 6.069261 0.000000 0.000000 0.000000 8.090284 -17.983910 -0.359956 -4.523337 23.706081 -0.468376 4.166589 -16.501942 0.708172 -0.000000 0.000000 -0.000000
47.310568 98.291166 40.890567 -85.702125 9.202107 -4.540992 -0.660021 6.054791 0.396605 -0.316883 -3.135859 0.184709 -0.316782 2.684485 0.152502 -0.226351 7.849959 0.116746 1.607699 12.683104 0.307037 2.930684 -12.464964 -0.081777 -2.701868 3.615148 -0.949630 -10.240843 -26.935375 68.202142 55.385635 -37.852509 37.906926 0.193795 -2.586675 -1.030640 -0.242664 7.346649 -1.660267 15.391342 -25.857623 -73.512723 -66.088097 -40.482914 -35.406407 10.044589 2.617675 13.353167 -7.521505 -32.094308 1.055956 -3.736946 38.514514 -0.172673 -8.790169 -3.689548 6.612566 -0.029671 0.580053 -0.285398 8.348035 -16.755362 -0.461936 -4.559797 22.743745 -0.335127 3.884155 -16.510920 0.710293 -0.000000 0.000000 0.000000
